<svg width="254" height="471" viewBox="0 0 254 471" fill="none" xmlns="http://www.w3.org/2000/svg">
<path d="M128 0H140.629L177 112.465V156H128V0Z" fill="#B2562F"/>
<path d="M128 0H114L78 112.465V156H128V0Z" fill="#B2562F"/>
<rect x="100" y="135" width="54" height="38" fill="#454545"/>
<path d="M88.7391 424H165.261L175 466.305H79L88.7391 424Z" fill="#727272"/>
<path d="M96.6861 424H158.941L166.864 466.305H88.7627L96.6861 424Z" fill="#8A8A8A"/>
<path d="M109.656 424H145.971L150.593 466.305H105.034L109.656 424Z" fill="#AFAFAF"/>
<path d="M70 370H183L178.5 413H74L70 370Z" fill="#4D4D4D"/>
<path d="M70 246H183L178.5 275H74L70 246Z" fill="#383838"/>
<path d="M77 413H176L170.305 424H82.6947L77 413Z" fill="#3E3E3E"/>
<rect x="70" y="365" width="113" height="5" fill="#8A8A8A"/>
<rect x="81" y="466" width="11" height="5" fill="#515151"/>
<rect x="162" y="466" width="11" height="5" fill="#515151"/>
<rect x="120" y="466" width="16" height="5" fill="#515151"/>
<rect x="77" y="275" width="99" height="90" fill="#3D3D3D"/>
<rect x="108" y="285" width="39" height="80" fill="#B2562F"/>
<rect x="117" y="370" width="20" height="43" fill="#B2562F"/>
<path d="M178 154L198 162.5V236L178 250V154Z" fill="#B2562F"/>
<path d="M76 154L56 162.5V236L76 250V154Z" fill="#B2562F"/>
<rect x="113" y="296" width="28" height="59" fill="#2D2D2D"/>
<rect x="117" y="172" width="20" height="78" fill="#434343"/>
<path d="M137 172.404L154 154V250H137V172.404Z" fill="#2D2D2D"/>
<path d="M117 172L100 153V250H117V172Z" fill="#2D2D2D"/>
<rect x="117" y="250" width="20" height="25" fill="#B2562F"/>
<rect x="154" y="154" width="24" height="96" fill="#3B3B3B"/>
<rect x="76" y="154" width="24" height="96" fill="#3B3B3B"/>
<path d="M202 177L202 170L213 172L213 177L202 177Z" fill="#3E3E3E"/>
<path d="M202 223L202 230L213 228L213 223L202 223Z" fill="#3E3E3E"/>
<rect x="214" y="192" width="40" height="5" fill="#424242"/>
<rect x="216" y="187" width="16" height="5" fill="#424242"/>
<rect x="231" y="197" width="3" height="6" fill="#424242"/>
<rect x="223.043" y="195" width="3" height="7.50941" transform="rotate(30.4709 223.043 195)" fill="#424242"/>
<rect x="198" y="201" width="38" height="11" fill="#565656"/>
<rect x="198" y="168" width="4" height="65" fill="#434242"/>
<path d="M52 176L52 169L41 171L41 176L52 176Z" fill="#3E3E3E"/>
<path d="M52 222L52 229L41 227L41 222L52 222Z" fill="#3E3E3E"/>
<rect width="40" height="5" transform="matrix(-1 0 0 1 40 191)" fill="#424242"/>
<rect width="16" height="5" transform="matrix(-1 0 0 1 38 186)" fill="#424242"/>
<rect width="3" height="6" transform="matrix(-1 0 0 1 23 196)" fill="#424242"/>
<rect width="3" height="7.50941" transform="matrix(-0.861887 0.507101 0.507101 0.861887 30.9574 194)" fill="#424242"/>
<rect width="38" height="11" transform="matrix(-1 0 0 1 56 200)" fill="#565656"/>
<rect width="4" height="65" transform="matrix(-1 0 0 1 56 167)" fill="#434242"/>
<path d="M112.675 14H141.32L152.878 37.8009L177 111H78L101.619 37.8009L112.675 14Z" fill="#797979"/>
<path d="M140 38L151.585 53.6112L173 112.753V140.236L168.436 145.127V156H140V38Z" fill="#343434"/>
<path d="M114 38L102.415 53.6112L81 112.753V140.236L85.5638 145.127V156H114V38Z" fill="#343434"/>
<rect x="113" y="38" width="28" height="70" fill="#6F6F6F"/>
<rect x="113" y="11" width="28" height="27" fill="#4B4A4A"/>
<rect x="113" y="108" width="28" height="27" fill="#4B4A4A"/>
</svg>
